 <svg version="1.0" xmlns="http://www.w3.org/2000/svg" width="150.000000pt" height="40.000000pt" viewBox="0 0 700.000000 218.000000" preserveAspectRatio="xMidYMid meet">
<metadata>
Created by potrace 1.12, written by Peter Selinger 2001-2015
</metadata>
<g transform="translate(0.000000,218.000000) scale(0.100000,-0.100000)" fill="#000000" stroke="none">
<path d="M0 1090 l0 -1090 3500 0 3500 0 0 1090 0 1090 -3500 0 -3500 0 0
-1090z m949 819 c25 -11 62 -39 84 -62 30 -31 41 -38 45 -27 9 26 65 72 110
91 88 38 172 15 236 -64 29 -36 31 -44 31 -121 0 -50 -5 -94 -14 -112 -8 -16
-21 -45 -30 -64 -9 -19 -84 -104 -168 -187 -117 -118 -158 -153 -177 -153 -20
0 -62 35 -175 148 -165 162 -204 222 -217 332 -20 173 124 288 275 219z m4821
-116 c103 -35 175 -119 168 -194 l-3 -34 -82 -3 c-51 -2 -83 1 -83 7 0 6 -16
26 -35 46 -33 32 -41 35 -93 35 -70 0 -102 -19 -102 -60 0 -38 33 -60 145 -94
137 -41 190 -65 218 -94 86 -92 75 -241 -25 -326 -103 -88 -329 -88 -451 0
-56 41 -100 123 -95 176 l3 33 88 3 87 3 20 -46 c19 -45 39 -59 102 -72 68
-13 138 23 138 71 0 36 -39 61 -135 85 -149 37 -237 87 -272 155 -22 41 -22
150 0 192 62 119 246 171 407 117z m714 0 c71 -21 131 -66 163 -121 l28 -47 0
-222 c0 -164 -3 -225 -12 -234 -18 -18 -16 -43 7 -72 29 -37 25 -60 -19 -95
-49 -40 -64 -40 -107 -2 -29 25 -38 28 -60 20 -41 -16 -188 -12 -241 6 -71 24
-129 68 -160 122 l-28 47 0 215 0 215 28 47 c70 120 239 171 401 121z m-3626
-5 c9 -9 12 -70 12 -214 0 -111 3 -209 6 -218 4 -11 19 -16 50 -16 41 0 44 -2
45 -27 3 -68 1 -124 -5 -130 -3 -4 -25 -9 -49 -12 l-42 -6 -3 -60 c-3 -73 -16
-85 -90 -85 -82 0 -92 9 -92 85 l0 65 -168 0 c-117 0 -172 4 -180 12 -7 7 -12
40 -12 80 l0 67 146 188 c81 103 165 209 186 236 l40 47 72 0 c43 0 77 -5 84
-12z m521 -1 c7 -9 12 -110 13 -303 l3 -289 52 -3 52 -3 7 -44 c8 -57 -2 -111
-22 -119 -9 -3 -98 -6 -199 -6 -211 0 -215 1 -215 78 0 86 4 91 74 94 l61 3 0
150 0 150 -55 3 c-67 3 -80 18 -80 85 0 65 13 87 53 87 45 1 67 21 78 72 6 23
15 46 22 50 21 13 144 9 156 -5z m729 1 c8 -8 12 -54 12 -140 0 -70 3 -128 6
-128 6 0 2 -4 124 130 146 162 128 151 244 148 63 -2 101 -7 103 -14 2 -7 -54
-73 -124 -149 -70 -75 -131 -143 -135 -149 -4 -7 32 -76 84 -162 175 -288 174
-286 142 -298 -9 -3 -49 -6 -90 -6 -93 0 -93 0 -198 178 -44 72 -83 132 -87
132 -4 0 -22 -15 -38 -32 -31 -33 -31 -34 -31 -145 0 -101 -2 -113 -19 -123
-24 -13 -131 -13 -151 0 -13 8 -15 62 -18 370 -2 242 1 367 8 380 9 17 21 20
83 20 44 0 78 -5 85 -12z m976 -3 c133 -40 196 -124 196 -260 0 -84 -16 -129
-65 -184 -50 -55 -118 -80 -245 -89 l-105 -7 -3 -100 c-2 -79 -6 -103 -19
-112 -24 -18 -124 -16 -151 3 l-22 15 0 355 c0 226 4 362 10 375 10 18 23 19
183 19 123 0 186 -4 221 -15z m-4689 -522 c14 -21 52 -78 84 -128 71 -110 152
-189 210 -205 56 -15 105 -10 109 11 2 13 -13 21 -65 34 -89 24 -114 37 -152
80 -32 37 -42 89 -18 98 6 2 35 -8 62 -24 28 -15 101 -42 164 -59 142 -38 157
-46 215 -114 26 -31 54 -56 61 -56 8 0 28 20 46 45 48 66 91 91 221 124 70 18
136 42 166 61 58 35 58 35 72 11 13 -25 -10 -82 -45 -109 -28 -22 -83 -45
-152 -62 -71 -18 -66 -50 8 -50 89 0 177 76 284 245 31 50 65 100 75 113 22
25 58 29 66 8 13 -33 -157 -353 -228 -431 -58 -63 -119 -97 -227 -125 -108
-27 -155 -50 -218 -105 -28 -25 -56 -45 -63 -45 -6 0 -30 15 -53 34 -56 45
-149 91 -227 111 -137 35 -214 82 -275 165 -50 69 -195 354 -195 385 0 41 43
34 75 -12z m2316 -824 c25 -28 27 -29 32 -9 3 11 5 23 5 27 0 17 52 22 135 14
4 -1 15 -17 24 -36 17 -37 33 -31 33 11 0 26 17 34 48 23 20 -8 23 -14 17 -39
-10 -44 5 -58 23 -20 30 62 84 80 136 45 33 -23 37 -23 43 -7 10 26 21 30 72
26 25 -2 52 -3 59 -4 7 0 20 -17 29 -37 l16 -38 9 35 c11 40 22 50 49 43 14
-4 19 -14 19 -42 0 -51 10 -57 29 -18 9 18 32 40 53 50 34 16 39 17 66 3 32
-16 42 -34 42 -72 0 -17 -7 -25 -24 -30 -29 -7 -46 1 -46 22 0 9 -7 14 -17 12
-12 -2 -21 -18 -27 -45 -9 -45 -1 -97 14 -88 5 3 7 12 3 20 -3 8 -2 27 1 41 6
22 11 25 43 22 42 -4 59 -24 49 -63 -18 -73 -106 -109 -155 -64 -19 18 -25 19
-32 8 -5 -8 -9 -18 -9 -22 0 -5 -15 -7 -32 -5 -30 3 -35 8 -53 58 -16 44 -20
50 -23 30 -1 -14 -5 -40 -8 -57 l-5 -33 -69 0 c-68 0 -70 1 -70 24 0 14 -4 28
-10 31 -5 3 -10 2 -10 -4 0 -6 -10 -19 -22 -31 -29 -26 -87 -27 -116 0 -26 25
-28 25 -35 0 -4 -14 -14 -20 -35 -20 -27 0 -32 6 -53 58 l-24 57 -5 -55 -5
-55 -74 -3 -73 -3 3 91 c2 49 2 90 -1 90 -3 0 -14 -16 -24 -35 -16 -29 -17
-40 -8 -61 17 -35 15 -55 -5 -70 -26 -20 -31 -18 -53 26 -23 45 -40 52 -40 16
0 -42 -11 -56 -41 -56 -26 0 -29 4 -29 30 0 17 -4 30 -10 30 -5 0 -10 -6 -10
-14 0 -27 -47 -46 -116 -46 l-67 0 8 123 c3 67 10 125 14 130 4 4 37 10 73 14
59 5 67 4 86 -18 25 -26 28 -65 8 -92 -14 -18 -11 -57 4 -57 9 0 20 61 20 112
0 41 8 49 60 59 52 10 82 2 111 -32z m1222 10 c9 -12 17 -27 17 -35 0 -23 14
-16 32 16 33 58 95 64 141 14 l24 -26 7 26 c5 19 13 26 30 26 32 0 54 -23 62
-65 3 -19 10 -35 14 -35 4 0 17 23 28 50 17 41 25 50 46 50 13 0 26 -6 29 -12
3 -10 10 -10 30 1 32 17 77 2 77 -26 1 -10 7 -29 14 -42 13 -23 13 -23 37 25
29 60 63 71 80 27 l12 -28 6 25 c5 19 14 26 40 28 l32 3 -7 -94 c-5 -72 -3
-96 6 -102 24 -15 40 25 40 96 0 86 5 99 41 99 26 0 29 -4 29 -31 0 -17 4 -28
10 -24 6 3 10 17 10 29 0 50 70 37 90 -16 l13 -33 7 34 c5 18 13 37 20 41 19
12 51 -1 59 -22 7 -19 8 -18 18 4 10 22 13 23 124 20 63 -1 129 -2 148 -3 29
0 35 -5 49 -40 8 -21 18 -39 22 -39 4 0 14 18 23 40 12 32 20 40 41 40 35 0
34 -28 -5 -121 -17 -41 -32 -90 -33 -109 -1 -32 -4 -35 -33 -38 -33 -3 -33 -3
-33 40 0 24 -11 72 -24 108 -21 57 -26 65 -47 62 -43 -4 -49 -11 -49 -50 0
-22 -3 -67 -6 -101 -7 -62 -7 -62 -37 -59 l-31 3 -2 93 c-1 51 -4 96 -7 99 -3
2 -15 2 -26 -2 -18 -5 -21 -16 -23 -98 l-3 -92 -74 0 -75 0 -21 54 c-24 58
-35 52 -35 -20 0 -38 -1 -39 -35 -39 -33 0 -35 2 -35 36 l0 35 -34 -35 c-26
-29 -41 -36 -70 -36 -20 0 -47 7 -60 15 -21 14 -24 14 -30 0 -4 -11 -16 -15
-38 -13 -26 2 -34 8 -36 26 -3 23 -4 23 -23 6 -15 -13 -22 -15 -31 -6 -17 17
-25 15 -31 -8 -5 -19 -12 -21 -74 -18 -66 3 -68 4 -71 30 l-3 28 -22 -20 c-27
-26 -36 -25 -46 2 -7 20 -8 19 -14 -11 -6 -29 -10 -32 -39 -29 -29 3 -33 7
-35 33 0 17 -2 34 -2 39 -1 5 -11 -6 -24 -25 -26 -38 -62 -55 -100 -45 -39 9
-59 47 -58 109 l0 54 -42 -1 c-38 -1 -42 1 -39 22 5 31 -15 27 -33 -8 -19 -37
-19 -94 -1 -109 11 -10 19 -6 40 15 21 23 27 25 40 15 24 -20 20 -36 -19 -70
-107 -94 -205 55 -124 186 39 63 113 79 152 32z m1817 5 c8 -8 20 -29 27 -47
l11 -32 1 47 c1 52 10 63 47 54 l24 -6 -6 -96 -7 -95 44 3 44 3 7 53 c13 87
53 142 104 142 29 0 70 -34 78 -65 7 -27 26 -34 26 -10 0 9 11 27 25 40 32 32
95 35 123 5 19 -20 20 -20 24 -2 4 16 18 20 83 25 50 5 83 3 91 -4 9 -7 29 -7
66 0 44 8 59 7 88 -7 30 -15 35 -23 38 -56 2 -28 -3 -47 -17 -67 -19 -25 -19
-30 -6 -56 19 -37 19 -53 -2 -69 -27 -20 -31 -18 -53 27 -25 47 -44 47 -48 -3
l-3 -35 -123 -1 c-106 -2 -125 0 -130 14 -6 15 -8 15 -31 0 -44 -29 -135 -13
-135 24 0 25 22 41 40 30 23 -15 50 -12 50 5 0 8 -16 25 -35 37 -19 13 -38 31
-41 41 -9 29 -22 10 -29 -43 -13 -94 -95 -142 -151 -89 l-22 21 -12 -21 c-10
-20 -18 -22 -88 -19 l-77 3 3 80 3 81 -41 -4 c-37 -4 -40 -2 -40 22 0 31 -15
34 -30 5 -16 -28 -18 -105 -3 -120 9 -9 18 -5 37 16 15 16 32 25 41 21 46 -17
-20 -106 -79 -106 -39 0 -70 27 -86 75 -31 93 46 215 125 200 16 -3 37 -12 45
-21z"></path>
<path d="M6300 1632 c-54 -27 -60 -48 -60 -224 0 -154 0 -157 26 -187 49 -58
148 -60 200 -4 23 25 24 31 24 192 0 186 -5 201 -66 227 -45 19 -82 18 -124
-4z"></path>
<path d="M2644 1494 c-54 -65 -104 -135 -104 -146 0 -14 140 -10 146 5 3 8 4
53 2 102 l-3 89 -41 -50z"></path>
<path d="M4867 1623 c-4 -3 -7 -50 -7 -104 0 -98 0 -99 26 -105 34 -9 122 1
157 17 52 24 74 101 41 147 -25 37 -67 52 -142 52 -38 0 -72 -3 -75 -7z"></path>
<path d="M2613 403 c-13 -5 -18 -35 -7 -46 10 -10 44 17 44 35 0 18 -13 21
-37 11z"></path>
<path d="M2407 393 c-13 -12 -7 -23 12 -23 10 0 21 7 25 15 5 15 -24 22 -37 8z"></path>
<path d="M3080 359 c-12 -43 -5 -99 12 -99 6 0 8 10 4 23 -3 12 -3 33 1 46 5
21 10 23 49 18 33 -3 44 -1 44 9 0 10 -9 12 -31 7 -25 -5 -31 -2 -36 16 -9 34
-31 24 -43 -20z"></path>
<path d="M2412 298 c-7 -7 -12 -16 -12 -20 0 -12 28 -10 36 3 10 17 -10 31
-24 17z"></path>
<path d="M4040 401 c-12 -23 -14 -131 -2 -131 21 0 32 29 32 87 0 64 -11 79
-30 44z"></path>
<path d="M6030 400 c-18 -34 -24 -116 -10 -125 21 -13 40 25 40 81 0 58 -13
76 -30 44z"></path>
<path d="M6486 413 c-4 -4 -28 -10 -53 -13 -64 -7 -70 -30 -8 -30 45 0 46 -1
43 -27 -3 -24 -8 -29 -43 -33 -26 -3 -40 -10 -40 -19 0 -11 15 -15 57 -15 l57
-1 3 64 c3 63 -2 88 -16 74z"></path>
<path d="M6230 395 c0 -18 49 -64 68 -65 6 0 12 9 12 20 0 15 -7 20 -26 20
-17 0 -28 6 -31 20 -6 24 -23 27 -23 5z"></path>
<path d="M6583 403 c-17 -6 -16 -43 1 -43 18 0 39 27 31 40 -7 11 -13 11 -32
3z"></path>
</g>
</svg>