 <svg version="1.0" xmlns="http://www.w3.org/2000/svg" width="132.000000pt" height="130.000000pt" viewBox="0 0 900.000000 900.000000" preserveAspectRatio="xMidYMid meet">
<metadata>
Created by potrace 1.12, written by Peter Selinger 2001-2015
</metadata>
<g transform="translate(0.000000,700.000000) scale(0.100000,-0.100000)" fill="#000000" stroke="none">
<path d="M1184 3621 c-17 -10 -41 -32 -53 -47 -20 -26 -23 -37 -18 -99 5 -82
28 -129 104 -208 77 -81 175 -167 189 -167 23 0 238 223 262 272 31 64 38 134
19 180 -18 44 -82 88 -127 88 -42 0 -105 -34 -132 -71 l-23 -31 -25 30 c-56
67 -137 89 -196 53z m296 -275 c0 -5 -7 -3 -15 4 -8 7 -12 17 -9 22 7 10 24
-9 24 -26z m-93 9 c0 -8 -4 -15 -8 -15 -4 0 -9 7 -13 15 -3 9 0 15 8 15 7 0
13 -7 13 -15z m43 0 c0 -9 -6 -12 -15 -9 -8 4 -15 10 -15 15 0 5 7 9 15 9 8 0
15 -7 15 -15z m-116 -11 c3 -8 2 -12 -4 -9 -6 3 -10 10 -10 16 0 14 7 11 14
-7z"></path>
<path d="M4812 3541 c-40 -10 -102 -58 -119 -92 -20 -37 -16 -119 7 -156 24
-40 72 -65 186 -98 102 -29 114 -38 114 -76 0 -61 -110 -83 -169 -33 -17 14
-31 34 -31 45 0 17 -8 19 -65 19 -64 0 -65 0 -65 -27 0 -42 37 -106 75 -131
19 -12 64 -29 100 -37 58 -14 72 -14 134 0 88 20 134 61 149 131 6 26 9 52 7
58 -2 6 -6 23 -9 37 -12 55 -53 82 -187 123 -97 29 -132 53 -127 88 4 31 44
50 97 44 34 -3 51 -11 76 -39 28 -31 37 -35 76 -32 24 1 47 3 52 4 15 2 6 60
-16 92 -35 52 -94 80 -180 84 -39 2 -87 0 -105 -4z"></path>
<path d="M5375 3541 c-70 -18 -108 -48 -141 -111 -27 -50 -28 -318 -2 -367 27
-49 85 -90 153 -108 52 -14 71 -15 119 -5 54 11 57 11 87 -14 l31 -26 27 19
c52 37 57 49 31 76 -20 21 -22 28 -12 50 8 17 12 87 12 194 l0 168 -30 41
c-16 23 -48 51 -71 62 -45 23 -154 34 -204 21z m152 -135 l28 -24 0 -132 0
-132 -33 -29 c-45 -40 -98 -40 -141 0 l-31 29 0 131 c0 127 1 133 25 156 34
35 112 35 152 1z"></path>
<path d="M2511 3359 c-130 -167 -141 -184 -141 -223 0 -23 5 -47 12 -54 8 -8
54 -12 140 -12 l128 0 0 -55 0 -55 59 0 60 0 3 53 c3 51 4 52 38 57 35 5 35 5
38 63 l3 57 -34 0 c-23 0 -37 6 -41 16 -3 9 -6 87 -6 175 l0 159 -59 0 -58 0
-142 -181z m139 -84 l0 -85 -65 0 c-36 0 -65 4 -65 10 0 12 113 160 123 160 4
0 7 -38 7 -85z"></path>
<path d="M3047 3534 c-4 -4 -7 -19 -7 -34 0 -33 -25 -57 -65 -62 -29 -3 -30
-4 -30 -58 l0 -55 48 -3 47 -3 0 -120 0 -119 -37 0 c-56 0 -65 -10 -61 -66 l3
-49 158 -3 158 -3 -3 58 -3 58 -42 3 -43 3 -2 227 -3 227 -55 3 c-31 2 -59 0
-63 -4z"></path>
<path d="M3607 3534 c-4 -4 -7 -135 -7 -291 l0 -284 63 3 62 3 3 91 c3 86 4
93 32 119 l29 28 38 -62 c21 -34 55 -88 75 -121 l37 -60 71 0 c39 0 70 4 70
10 0 5 -43 82 -96 170 l-96 160 70 77 c39 43 84 91 101 107 49 47 42 56 -43
56 l-74 0 -97 -107 c-53 -60 -101 -109 -106 -111 -4 -2 -10 45 -11 105 l-3
108 -55 3 c-31 2 -59 0 -63 -4z"></path>
<path d="M4170 3250 l0 -291 63 3 62 3 5 85 5 85 95 6 c123 7 159 27 200 114
35 72 19 171 -37 222 -55 51 -79 58 -240 61 l-153 4 0 -292z m294 145 c18 -17
26 -34 26 -58 0 -66 -49 -96 -146 -89 l-44 4 0 84 0 84 69 0 c58 0 72 -3 95
-25z"></path>
<path d="M840 3143 c0 -23 105 -228 147 -287 39 -55 102 -92 203 -121 80 -23
147 -56 188 -95 l22 -21 58 44 c31 25 73 50 92 56 19 5 61 18 93 27 75 22 135
62 174 116 39 54 143 259 143 281 0 42 -35 6 -109 -110 -61 -96 -114 -147
-169 -164 -51 -15 -92 -5 -92 21 0 15 13 23 58 36 81 23 109 40 127 74 8 16
15 31 15 35 0 11 -30 4 -62 -15 -18 -10 -75 -30 -127 -44 -99 -27 -161 -68
-161 -108 0 -10 -6 -19 -12 -19 -71 -8 -79 -7 -73 11 4 13 -6 29 -31 54 -20
20 -41 36 -45 36 -26 0 -39 -86 -16 -109 10 -10 8 -12 -8 -9 -25 4 -33 60 -14
95 16 31 9 37 -75 57 -38 9 -82 26 -97 37 -27 19 -59 26 -59 12 0 -19 39 -69
61 -80 13 -6 50 -19 82 -28 44 -12 57 -20 57 -35 0 -27 -41 -36 -92 -21 -55
17 -107 68 -186 185 -67 100 -92 124 -92 89z m680 -258 c14 -26 5 -50 -9 -26
-5 7 -12 12 -17 12 -8 -1 -9 4 -5 29 2 18 17 11 31 -15z m-53 -32 c-3 -10 -5
-4 -5 12 0 17 2 24 5 18 2 -7 2 -21 0 -30z m103 12 c0 -14 -4 -25 -10 -25 -5
0 -10 11 -10 25 0 14 5 25 10 25 6 0 10 -11 10 -25z m-240 -6 c0 -11 -4 -18
-10 -14 -5 3 -7 12 -3 20 7 21 13 19 13 -6z"></path>
<path d="M2573 2523 l-31 -4 -8 -87 c-4 -48 -7 -89 -7 -92 0 -3 7 -6 16 -8 12
-3 17 3 17 21 0 14 6 30 13 36 11 8 18 3 32 -23 16 -29 22 -33 37 -25 17 9 17
12 2 40 -14 28 -14 32 0 48 9 10 16 32 16 50 0 25 -6 34 -26 41 -14 6 -26 9
-27 8 -1 0 -16 -3 -34 -5z m47 -53 c0 -26 -38 -47 -46 -25 -9 23 3 45 26 45
13 0 20 -7 20 -20z"></path>
<path d="M2697 2508 c-3 -13 -9 -58 -12 -100 l-7 -78 51 0 51 0 0 45 c0 25 4
45 9 45 5 0 17 -20 27 -45 11 -30 23 -45 34 -45 15 0 18 13 22 93 3 58 1 95
-6 99 -16 11 -26 -1 -26 -33 0 -37 -18 -38 -31 0 -11 32 -37 47 -52 32 -5 -5
-11 -37 -13 -72 -6 -89 -14 -87 -14 4 0 59 -3 77 -14 77 -8 0 -16 -10 -19 -22z"></path>
<path d="M2950 2520 c-64 -15 -84 -171 -23 -186 32 -8 74 11 80 36 8 30 23 24
23 -10 0 -29 1 -30 50 -30 l50 0 0 45 c0 25 4 45 9 45 5 0 17 -20 27 -45 11
-31 22 -45 35 -45 17 0 19 9 21 75 1 41 2 85 2 98 1 36 -28 27 -32 -10 -4 -41
-20 -42 -33 -4 -10 29 -33 46 -49 36 -5 -3 -11 -39 -15 -80 -4 -41 -10 -75
-14 -75 -3 0 -5 36 -3 80 3 65 1 80 -11 80 -17 0 -27 -30 -27 -82 0 -36 -12
-49 -25 -28 -3 6 -18 10 -31 10 -23 0 -25 -4 -22 -32 2 -24 -1 -33 -12 -33
-10 0 -16 12 -18 36 -5 64 32 121 45 69 6 -21 28 -27 38 -9 11 17 -3 56 -22
61 -10 2 -29 2 -43 -2z"></path>
<path d="M3290 2517 c-45 -23 -66 -154 -28 -178 24 -16 59 -9 84 16 34 34 29
69 -9 73 -27 3 -28 1 -25 -30 2 -24 -1 -33 -12 -33 -10 0 -16 12 -18 36 -5 64
32 121 45 69 8 -28 43 -26 43 3 0 45 -38 65 -80 44z"></path>
<path d="M3513 2518 c-42 -20 -64 -97 -44 -151 17 -45 83 -48 109 -6 19 29 1
45 -22 20 -10 -11 -24 -17 -32 -14 -19 7 -18 83 2 111 17 25 34 21 34 -9 0
-12 7 -19 20 -19 28 0 27 44 -2 64 -26 18 -34 19 -65 4z"></path>
<path d="M3644 2509 c-26 -29 -33 -139 -9 -162 37 -37 95 -10 95 44 0 16 5 29
10 29 24 0 4 84 -24 102 -20 14 -53 8 -72 -13z m63 -77 c-5 -47 -19 -68 -36
-58 -14 9 -14 81 0 107 9 17 13 18 26 8 11 -10 14 -25 10 -57z"></path>
<path d="M4276 2518 c-2 -7 -7 -52 -10 -100 l-6 -88 25 0 c15 0 25 5 24 13 -4
30 2 77 9 77 5 0 14 -18 21 -41 11 -35 34 -59 46 -47 2 2 7 37 10 78 4 41 8
81 11 89 4 13 -11 30 -28 31 -5 0 -8 -16 -8 -35 0 -44 -20 -46 -40 -2 -16 33
-47 48 -54 25z"></path>
<path d="M4431 2475 c-6 -27 -13 -71 -17 -97 -6 -47 -5 -48 19 -48 25 0 26 2
29 73 3 70 4 72 31 75 l27 3 0 -75 c0 -69 2 -76 20 -76 18 0 20 7 20 75 0 72
1 76 26 85 50 19 21 35 -64 35 l-82 0 -9 -50z"></path>
<path d="M4890 2502 c-26 -27 -30 -38 -30 -86 0 -61 16 -86 56 -86 27 0 64 32
64 55 0 20 -6 19 -31 -6 -19 -19 -23 -20 -37 -5 -21 21 -6 109 21 114 12 2 17
-3 17 -17 0 -14 6 -21 20 -21 14 0 20 7 20 23 0 31 -11 44 -42 52 -22 6 -33 1
-58 -23z"></path>
<path d="M5016 2478 c-3 -29 -6 -74 -6 -100 l0 -48 55 0 c52 0 55 1 55 25 0
22 -4 25 -35 25 l-35 0 0 75 c0 57 -3 75 -14 75 -9 0 -15 -18 -20 -52z"></path>
<path d="M5161 2504 c-28 -36 -30 -133 -3 -157 25 -23 55 -21 77 3 26 29 33
141 10 164 -24 24 -61 20 -84 -10z m69 -55 c0 -40 -17 -79 -35 -79 -18 0 -21
79 -4 111 14 27 39 7 39 -32z"></path>
<path d="M5329 2516 c-13 -6 -28 -24 -34 -40 -9 -26 -6 -31 23 -55 43 -36 43
-63 0 -59 -44 4 -48 -19 -5 -27 46 -9 71 0 87 31 13 24 12 27 -29 65 -34 31
-41 43 -32 52 10 9 16 7 27 -7 10 -15 17 -17 25 -9 31 31 -19 71 -62 49z"></path>
<path d="M5463 2523 l-42 -4 -3 -95 -3 -94 40 0 c60 0 85 10 85 32 0 16 -6 19
-36 16 -29 -2 -38 1 -44 17 -7 18 -3 20 29 20 48 0 51 29 4 33 -42 4 -46 32
-5 32 16 0 36 6 47 13 21 16 12 38 -13 35 -9 -1 -36 -3 -59 -5z"></path>
<path d="M5604 2523 c-28 -4 -32 -9 -38 -41 -3 -20 -6 -63 -6 -94 0 -51 2 -58
20 -58 16 0 20 7 20 30 0 39 20 39 43 -1 14 -25 20 -29 31 -20 11 9 12 18 3
42 -9 22 -9 34 1 49 13 22 16 59 4 76 -9 15 -40 21 -78 17z m51 -43 c8 -12
-33 -53 -45 -45 -11 7 -13 38 -3 48 10 10 41 8 48 -3z"></path>
<path d="M2386 2508 c-3 -7 -7 -50 -10 -95 l-5 -83 45 0 c69 0 86 13 83 63 -1
23 1 50 5 60 5 9 5 28 2 42 -6 23 -11 25 -62 25 -35 0 -56 -4 -58 -12z m79
-43 c0 -5 -10 -11 -22 -13 -16 -2 -23 2 -23 13 0 11 7 15 23 13 12 -2 22 -7
22 -13z m-10 -75 c0 -8 -8 -16 -17 -18 -13 -2 -18 3 -18 18 0 15 5 20 18 18 9
-2 17 -10 17 -18z"></path>
<path d="M3769 2483 c-1 -21 -3 -64 -5 -95 -4 -53 -2 -58 16 -58 13 0 20 7 20
18 0 27 11 34 25 15 13 -18 35 -10 35 13 0 8 5 12 10 9 6 -3 10 -17 10 -31 0
-17 5 -24 20 -24 19 0 20 7 20 95 0 85 -2 95 -18 95 -12 0 -25 -15 -36 -40
-20 -45 -32 -44 -44 3 -6 22 -15 33 -30 35 -19 3 -22 -1 -23 -35z"></path>
<path d="M3945 2482 c-3 -21 -5 -56 -4 -77 1 -22 -2 -48 -6 -57 -6 -15 -2 -18
19 -18 19 0 26 5 26 20 0 22 10 26 28 8 8 -8 16 -5 31 13 l20 24 1 -32 c0 -26
4 -33 20 -33 19 0 20 7 20 95 0 85 -2 95 -18 95 -11 0 -26 -16 -39 -42 -21
-43 -21 -43 -31 -18 -6 14 -13 33 -16 43 -3 9 -14 17 -25 17 -15 0 -21 -9 -26
-38z"></path>
<path d="M4126 2498 c-10 -40 -6 -144 6 -156 18 -18 63 -15 88 6 19 15 24 31
28 95 4 72 3 77 -16 77 -17 0 -20 -8 -24 -65 -4 -70 -19 -98 -40 -77 -9 9 -12
35 -10 77 3 52 1 65 -11 65 -8 0 -17 -10 -21 -22z"></path>
<path d="M4625 2503 c36 -91 46 -128 42 -149 -3 -18 0 -24 14 -24 14 0 19 7
19 26 0 14 7 38 15 52 24 44 44 100 37 106 -13 14 -31 4 -41 -24 -5 -16 -15
-30 -21 -30 -6 0 -16 14 -21 30 -7 20 -18 30 -31 30 -15 0 -18 -4 -13 -17z"></path>
</g>
</svg>