 <svg version="1.0" xmlns="http://www.w3.org/2000/svg" width="150.000000pt" height="40.000000pt" viewBox="0 0 700.000000 203.000000" preserveAspectRatio="xMidYMid meet">
<metadata>
Created by potrace 1.12, written by Peter Selinger 2001-2015
</metadata>
<g transform="translate(0.000000,203.000000) scale(0.100000,-0.100000)" fill="#000000" stroke="none">
<path d="M536 1916 c-71 -49 -96 -95 -96 -178 0 -66 3 -78 43 -168 29 -68 136
-184 320 -350 44 -40 49 -42 72 -30 41 22 250 225 301 293 113 150 135 296 57
387 -71 83 -156 101 -251 53 -50 -25 -78 -51 -109 -99 -12 -19 -13 -18 -28 1
-63 82 -137 125 -212 125 -38 -1 -59 -8 -97 -34z m191 -348 c-3 -7 -5 -2 -5
12 0 14 2 19 5 13 2 -7 2 -19 0 -25z m246 -28 c4 -17 2 -18 -13 -10 -24 13
-33 27 -25 40 9 14 31 -4 38 -30z m-132 2 c7 -18 5 -22 -10 -22 -13 0 -18 7
-18 25 0 30 17 28 28 -3z m55 1 c2 -13 1 -23 -2 -23 -10 0 -34 28 -34 40 0 21
33 5 36 -17z m-162 -9 c8 -21 8 -24 -3 -24 -5 0 -11 9 -14 20 -6 24 8 27 17 4z"></path>
<path d="M5734 1815 c-148 -36 -224 -116 -224 -234 0 -145 78 -209 330 -272
95 -23 124 -45 128 -92 3 -29 -2 -42 -24 -62 -24 -22 -36 -25 -99 -25 -86 0
-133 25 -151 80 l-12 35 -87 3 c-49 2 -92 -1 -97 -6 -15 -15 13 -107 47 -154
38 -52 123 -98 218 -119 111 -24 286 24 342 93 74 93 74 238 0 312 -38 39
-101 65 -245 106 -113 32 -164 69 -158 116 5 41 49 69 111 69 69 0 106 -18
140 -66 l27 -40 78 3 77 3 2 35 c7 90 -81 176 -213 210 -89 22 -117 23 -190 5z"></path>
<path d="M6529 1816 c-59 -13 -130 -46 -163 -74 -38 -35 -73 -99 -84 -156 -15
-75 -15 -304 -1 -381 14 -74 28 -102 75 -148 66 -64 190 -105 281 -94 159 21
145 22 177 -12 17 -17 37 -31 45 -31 19 0 101 73 101 88 0 6 -14 27 -31 46
l-30 35 20 40 c19 37 21 58 21 259 0 215 0 219 -26 270 -43 87 -116 135 -239
159 -80 15 -72 15 -146 -1z m153 -172 c67 -32 73 -50 76 -239 2 -151 1 -174
-16 -205 -26 -46 -66 -68 -128 -69 -63 -1 -98 16 -130 63 -23 33 -24 42 -24
201 0 154 1 168 22 199 41 62 130 84 200 50z"></path>
<path d="M2590 1748 c-27 -35 -91 -115 -140 -178 -50 -63 -96 -122 -103 -130
-7 -8 -33 -44 -60 -78 -45 -62 -47 -66 -47 -132 0 -38 4 -72 10 -75 5 -3 87
-6 183 -6 95 -1 179 -4 185 -8 6 -3 12 -40 14 -81 l3 -75 79 -3 c57 -2 82 1
87 10 5 7 9 43 9 81 0 37 3 67 8 68 4 1 21 2 39 4 61 5 63 8 63 89 l0 75 -52
3 -53 3 -5 245 c-3 135 -7 246 -8 248 -1 1 -38 2 -82 2 l-80 0 -50 -62z m38
-315 l-3 -118 -84 -3 c-47 -2 -89 2 -94 7 -7 7 14 40 61 100 39 49 77 99 84
110 7 12 19 21 26 21 10 0 12 -27 10 -117z"></path>
<path d="M3203 1798 c-6 -7 -13 -29 -17 -49 -8 -48 -41 -77 -91 -81 l-40 -3 0
-80 0 -80 65 -5 65 -5 0 -170 0 -170 -65 -5 -65 -5 0 -80 0 -80 214 -3 c165
-2 216 1 223 10 12 20 9 133 -4 146 -7 7 -34 12 -60 12 -46 0 -48 1 -48 28 0
15 -1 156 -1 314 0 244 -2 290 -15 303 -20 19 -147 21 -161 3z"></path>
<path d="M3992 1802 c-9 -7 -12 -96 -10 -413 l3 -404 85 0 85 0 5 127 c5 135
1 123 67 195 6 7 16 13 21 13 8 0 86 -121 142 -222 8 -15 30 -48 47 -73 l33
-45 94 0 c52 0 97 4 101 9 5 10 -21 63 -56 113 -11 14 -19 29 -19 33 0 3 -13
25 -29 48 -16 23 -38 58 -48 77 -11 19 -43 72 -72 118 -28 46 -51 86 -51 88 0
3 46 55 103 116 149 161 182 200 182 212 0 7 -36 12 -101 14 l-101 3 -60 -63
c-33 -35 -80 -85 -105 -113 -108 -121 -122 -135 -132 -132 -7 2 -13 60 -16
153 l-5 149 -75 3 c-41 1 -81 -2 -88 -6z"></path>
<path d="M4790 1784 c-14 -35 -13 -759 0 -785 9 -16 22 -19 90 -19 94 0 89 -8
93 145 l2 100 120 8 c106 7 128 12 185 40 77 38 122 97 140 182 28 133 -29
257 -142 312 -71 35 -129 43 -308 43 l-170 0 -10 -26z m391 -165 c66 -33 86
-115 44 -176 -27 -39 -72 -53 -167 -53 l-88 0 0 118 c0 65 3 122 7 125 3 4 42
7 85 7 60 0 89 -5 119 -21z"></path>
<path d="M1602 1242 c-15 -16 -56 -75 -90 -131 -105 -167 -197 -252 -294 -267
-62 -10 -119 30 -87 61 8 8 50 23 94 35 44 12 95 31 112 43 33 22 63 71 63
101 0 22 -32 20 -63 -4 -37 -29 -77 -44 -202 -75 -116 -29 -172 -59 -207 -112
-10 -16 -18 -38 -18 -49 0 -17 -8 -23 -32 -27 -18 -2 -39 0 -47 7 -11 8 -15 8
-18 -1 -8 -23 -33 -2 -27 23 6 25 -28 84 -49 84 -7 0 -18 9 -25 20 -18 29 -38
25 -56 -12 -21 -41 -20 -97 1 -120 15 -17 15 -18 -5 -18 -44 0 -56 81 -22 138
24 39 21 48 -23 57 -78 16 -195 56 -229 80 -82 56 -102 10 -29 -68 34 -38 44
-42 137 -67 85 -22 109 -41 94 -71 -15 -27 -63 -33 -124 -15 -69 20 -155 97
-220 196 -25 39 -67 102 -92 140 -30 46 -53 70 -65 70 -39 0 -19 -54 106 -285
110 -203 169 -252 370 -310 117 -34 200 -74 258 -125 l46 -41 68 55 c81 66
124 87 223 111 111 26 197 70 256 131 47 49 172 263 214 366 8 20 18 40 23 44
11 11 9 52 -3 59 -6 4 -23 -7 -38 -23z m-582 -352 c11 -11 20 -32 20 -47 0
-25 -1 -25 -19 -9 -11 10 -24 15 -29 12 -13 -8 -24 22 -17 45 8 24 20 24 45
-1z m70 -36 c0 -32 -4 -44 -12 -41 -17 5 -10 87 8 87 2 0 4 -21 4 -46z m-130
-10 c0 -23 -14 -32 -24 -16 -8 13 5 52 15 46 5 -3 9 -16 9 -30z m-200 1 c0
-16 -6 -25 -15 -25 -16 0 -19 9 -9 34 9 25 24 19 24 -9z"></path>
<path d="M2515 361 l-40 -6 -6 -75 c-3 -41 -9 -101 -14 -133 l-8 -59 29 4 c26
3 30 8 34 43 7 57 31 57 61 0 27 -50 28 -51 54 -31 18 13 18 15 2 49 -21 43
-21 61 -2 77 19 16 20 103 2 119 -19 15 -64 20 -112 12z m73 -73 c3 -21 -3
-30 -26 -42 -34 -18 -42 -13 -42 25 0 50 62 66 68 17z"></path>
<path d="M2703 343 c-13 -33 -38 -223 -31 -243 3 -10 24 -15 66 -16 64 -1 76
5 78 41 3 81 5 95 14 95 6 0 13 -8 16 -17 3 -10 10 -26 15 -35 5 -10 9 -24 9
-31 0 -25 29 -55 49 -50 16 4 19 18 24 116 2 62 8 120 12 129 4 11 0 20 -15
28 -28 15 -40 0 -40 -52 0 -27 -4 -38 -15 -38 -9 0 -18 8 -21 18 -24 74 -35
85 -73 75 -16 -4 -21 -13 -21 -38 0 -64 -13 -154 -21 -149 -5 3 -9 48 -9 100
0 69 -3 94 -13 94 -6 0 -17 -12 -24 -27z"></path>
<path d="M3055 361 c-94 -40 -115 -239 -28 -272 32 -12 92 15 109 49 16 33 28
28 34 -15 l5 -38 65 0 65 0 5 62 c5 58 13 83 25 71 3 -2 16 -34 28 -69 21 -56
27 -64 47 -61 13 1 25 3 26 5 1 1 3 63 5 137 4 130 3 135 -16 135 -16 0 -21
-8 -25 -44 -5 -46 -26 -66 -36 -34 -20 62 -49 89 -84 78 -18 -6 -20 -16 -20
-100 0 -52 -4 -97 -10 -100 -6 -4 -10 32 -10 99 0 88 -3 106 -15 106 -20 0
-33 -35 -41 -115 l-7 -66 -22 21 c-12 12 -35 20 -55 20 l-33 0 6 -45 c6 -39 4
-45 -12 -45 -30 0 -44 26 -38 69 11 84 57 130 77 77 5 -14 14 -26 19 -26 24 0
41 14 41 34 -1 48 -60 86 -105 67z"></path>
<path d="M3570 363 c-62 -20 -80 -44 -99 -132 -14 -68 6 -125 52 -140 60 -22
133 40 125 107 -3 23 -8 27 -40 30 -29 3 -38 -1 -43 -17 -3 -11 -1 -29 4 -40
15 -28 14 -31 -13 -31 -31 0 -40 26 -31 86 8 53 35 90 59 81 9 -4 16 -15 14
-24 -2 -13 4 -18 22 -18 20 0 26 5 28 30 5 47 -36 82 -78 68z"></path>
<path d="M3870 363 c-46 -18 -90 -96 -90 -159 0 -77 62 -136 117 -112 51 23
82 68 59 87 -9 8 -18 5 -34 -14 -25 -28 -57 -33 -66 -9 -20 53 10 164 46 164
13 0 18 -8 18 -31 0 -27 3 -30 28 -27 57 6 30 93 -33 103 -16 2 -37 2 -45 -2z"></path>
<path d="M4046 344 c-14 -15 -26 -35 -26 -45 0 -10 -4 -21 -10 -24 -15 -9 -12
-108 5 -142 20 -40 55 -55 94 -42 40 14 64 52 56 90 -5 21 -2 31 8 35 25 9 29
35 11 85 -26 72 -89 92 -138 43z m94 -84 c0 -34 -19 -91 -36 -110 -12 -12 -16
-12 -30 2 -14 13 -15 28 -9 82 4 39 13 73 23 82 15 15 17 15 34 -6 10 -12 18
-35 18 -50z"></path>
<path d="M4945 358 c-4 -16 -25 -224 -25 -256 0 -20 5 -23 28 -20 23 3 27 8
30 38 4 61 13 100 21 100 9 0 25 -35 46 -100 6 -19 14 -34 18 -32 4 1 16 2 27
2 19 0 20 7 20 93 0 50 4 109 9 130 8 32 6 39 -10 48 -27 14 -39 3 -39 -34 0
-18 -4 -38 -9 -46 -11 -17 -31 -6 -31 18 0 40 -74 91 -85 59z"></path>
<path d="M5170 350 c-4 -8 -13 -56 -19 -107 -6 -50 -14 -105 -17 -122 -6 -26
-3 -31 19 -36 36 -9 47 1 47 43 0 20 3 67 7 105 l6 67 38 0 38 0 -2 -107 -2
-108 25 0 c25 0 25 2 35 115 l10 115 28 3 c23 3 28 8 25 25 -3 21 -8 22 -116
22 -91 0 -116 -3 -122 -15z"></path>
<path d="M5840 357 c-92 -47 -105 -236 -18 -266 22 -8 36 -7 56 3 38 19 64 51
60 72 -3 20 -28 32 -28 14 0 -18 -27 -40 -49 -40 -26 0 -36 35 -27 95 7 55 25
85 50 85 15 0 17 -5 12 -31 -6 -29 -5 -30 27 -27 26 2 33 8 35 29 6 53 -65 93
-118 66z"></path>
<path d="M5987 233 c-3 -76 -3 -141 1 -144 4 -3 38 -3 76 0 65 6 70 8 77 33 9
35 5 38 -54 38 l-49 0 3 103 4 102 -26 3 -26 3 -6 -138z"></path>
<path d="M6217 359 c-28 -16 -47 -65 -54 -133 -4 -51 -2 -70 13 -94 23 -40 62
-57 96 -42 41 19 59 62 65 154 4 81 4 84 -23 105 -29 22 -68 27 -97 10z m71
-109 c2 -51 -2 -70 -17 -89 -30 -39 -51 -22 -51 42 0 76 16 119 44 115 19 -3
21 -10 24 -68z"></path>
<path d="M6444 358 c-29 -7 -51 -35 -55 -68 -4 -43 3 -59 42 -84 30 -20 39
-33 37 -49 -3 -22 -11 -24 -68 -16 -35 6 -40 -28 -5 -41 51 -19 93 -12 126 21
38 38 32 59 -28 115 -29 26 -44 47 -42 59 6 27 29 31 36 6 3 -14 13 -21 29
-21 20 0 24 5 24 29 0 45 -39 65 -96 49z"></path>
<path d="M6623 363 l-52 -4 -6 -52 c-3 -29 -5 -90 -3 -137 l3 -85 40 3 c117 8
135 13 135 38 0 23 -3 24 -60 24 -45 0 -60 4 -60 14 0 8 -2 20 -5 28 -4 10 4
13 32 10 45 -4 85 19 66 39 -7 6 -29 12 -50 13 -31 1 -39 5 -41 22 -3 19 3 22
52 28 57 8 82 25 72 51 -5 15 -11 16 -123 8z"></path>
<path d="M6823 363 c-18 -2 -37 -12 -42 -21 -5 -9 -10 -69 -12 -132 l-4 -115
25 0 c22 0 25 5 28 43 4 55 27 54 59 -3 24 -43 40 -50 56 -24 8 12 6 27 -7 54
-16 33 -16 38 -2 54 19 21 30 72 22 104 -3 13 -17 29 -31 35 -26 12 -32 12
-92 5z m67 -58 c18 -22 -12 -65 -45 -65 -20 0 -25 5 -25 26 0 43 46 68 70 39z"></path>
<path d="M2269 353 c-13 -3 -17 -25 -23 -111 -4 -59 -8 -118 -9 -132 -2 -24 0
-25 64 -25 91 1 119 20 119 80 0 24 -4 46 -9 49 -5 3 0 23 10 43 24 47 24 54
-1 81 -17 18 -31 22 -78 21 -31 -1 -64 -3 -73 -6z m101 -66 c0 -18 -21 -37
-41 -37 -22 0 -33 16 -25 35 7 19 66 20 66 2z m-20 -111 c0 -22 -16 -36 -41
-36 -10 0 -12 43 -2 53 3 4 15 7 25 7 12 0 18 -7 18 -24z"></path>
<path d="M4218 288 c-4 -147 -5 -165 -11 -175 -10 -16 16 -33 41 -26 16 4 22
13 22 34 0 35 19 49 27 20 7 -28 35 -24 48 7 14 32 29 22 35 -24 4 -34 8 -39
30 -39 l25 0 1 110 c1 148 -2 165 -31 165 -18 0 -27 -11 -45 -55 -12 -31 -26
-58 -31 -61 -10 -6 -39 59 -39 86 0 19 -19 30 -51 30 -17 0 -19 -8 -21 -72z"></path>
<path d="M4475 350 c-4 -6 -9 -57 -11 -113 -2 -56 -7 -112 -10 -124 -6 -21 -3
-23 30 -23 33 0 36 2 36 30 0 20 5 30 15 30 8 0 15 -5 15 -10 0 -6 7 -13 15
-16 16 -6 45 17 45 36 0 6 6 10 13 7 7 -2 11 -18 9 -40 -2 -32 0 -37 23 -43
14 -3 28 -4 31 -1 9 9 4 261 -5 270 -12 12 -42 5 -51 -13 -10 -20 -27 -61 -35
-85 -6 -19 -7 -19 -26 4 -10 13 -19 34 -19 46 0 41 -57 75 -75 45z"></path>
<path d="M4726 328 c-12 -60 -19 -166 -12 -193 14 -57 126 -65 160 -12 17 26
40 180 32 214 -5 16 -14 23 -30 23 -23 0 -24 -4 -31 -94 -6 -74 -11 -99 -26
-112 -16 -14 -21 -15 -35 -3 -14 12 -16 28 -11 111 5 97 5 98 -18 98 -17 0
-24 -7 -29 -32z"></path>
<path d="M5441 351 c-10 -7 -12 -13 -5 -23 6 -7 17 -33 24 -58 7 -25 18 -51
24 -58 5 -7 10 -39 10 -70 1 -54 2 -57 26 -57 23 0 26 5 30 50 3 28 20 80 38
118 37 77 39 92 15 101 -21 8 -42 -16 -50 -56 -8 -41 -31 -34 -53 17 -19 45
-32 53 -59 36z"></path>
</g>
</svg>